<svg xmlns="http://www.w3.org/2000/svg" viewBox="0 0 32 32" width="32" height="32">
  <!-- Background circle -->
  <circle cx="16" cy="16" r="15" fill="#56a15a" stroke="#4a8c4f" stroke-width="1"/>
  
  <!-- Single card featuring Queen of Clubs -->
  <rect x="10" y="7" width="12" height="18" rx="2" ry="2" fill="#fff" stroke="#333" stroke-width="1"/>
  
  <!-- Queen of Clubs symbol (Q) -->
  <text x="16" y="14" text-anchor="middle" font-family="serif" font-size="8" font-weight="bold" fill="#333">Q</text>
  
  <!-- Club symbol -->
  <g transform="translate(16, 18)">
    <!-- Main club shape -->
    <ellipse cx="0" cy="0" rx="1.5" ry="2" fill="#333"/>
    <ellipse cx="-1.2" cy="-0.5" rx="1.2" ry="1.5" fill="#333"/>
    <ellipse cx="1.2" cy="-0.5" rx="1.2" ry="1.5" fill="#333"/>
    <!-- Club stem -->
    <rect x="-0.3" y="1.5" width="0.6" height="2" fill="#333"/>
  </g>
  
  <!-- Corner club symbols (smaller) -->
  <g transform="translate(12, 9) scale(0.4)">
    <ellipse cx="0" cy="0" rx="1.5" ry="2" fill="#333"/>
    <ellipse cx="-1.2" cy="-0.5" rx="1.2" ry="1.5" fill="#333"/>
    <ellipse cx="1.2" cy="-0.5" rx="1.2" ry="1.5" fill="#333"/>
    <rect x="-0.3" y="1.5" width="0.6" height="2" fill="#333"/>
  </g>
  
  <g transform="translate(20, 23) scale(0.4) rotate(180)">
    <ellipse cx="0" cy="0" rx="1.5" ry="2" fill="#333"/>
    <ellipse cx="-1.2" cy="-0.5" rx="1.2" ry="1.5" fill="#333"/>
    <ellipse cx="1.2" cy="-0.5" rx="1.2" ry="1.5" fill="#333"/>
    <rect x="-0.3" y="1.5" width="0.6" height="2" fill="#333"/>
  </g>
  
  <!-- Corner Q symbols (smaller) -->
  <text x="12" y="11" text-anchor="middle" font-family="serif" font-size="4" font-weight="bold" fill="#333">Q</text>
  <text x="20" y="25" text-anchor="middle" font-family="serif" font-size="4" font-weight="bold" fill="#333" transform="rotate(180 20 25)">Q</text>
</svg>
