<svg xmlns="http://www.w3.org/2000/svg" viewBox="115.8 19.06 269.17 461.88"><path fill="#fff" d="M311.45 31.72h45.15v103.45h-45.15zM145 54.75h46.52V158.2H145zm110.52 64.49h42.7v103.45h-42.7z"/><path fill="#fff" d="M141.52 129.22h218.34v339.87H141.52z"/><path d="M161.77 148.03a28.74 28.74 0 0 0-28.75 28.74v275.42a28.74 28.74 0 0 0 28.75 28.75H339a28.74 28.74 0 0 0 28.74-28.75v-43.07h.01V176.78A28.74 28.74 0 0 0 339 148.04M147.12 452.19V176.77a14.67 14.67 0 0 1 14.65-14.64H339a14.67 14.67 0 0 1 14.64 14.64v275.42A14.66 14.66 0 0 1 339 466.83H161.77a14.66 14.66 0 0 1-14.65-14.64Z" class="st0"/><path d="M274.79 298.36c-1.41 0-2.78.11-4.12.33a25.32 25.32 0 0 0 5.22-15.43 25.53 25.53 0 0 0-25.5-25.5 25.54 25.54 0 0 0-25.5 25.5c0 5.8 1.94 11.15 5.22 15.43a25.53 25.53 0 0 0-29.63 25.16 25.53 25.53 0 0 0 25.5 25.52c7.87 0 14.9-3.59 19.58-9.2-.8 11.22-2.55 21.92-5.86 31.03h21.37c-3.3-9.1-5.06-19.81-5.86-31.03a25.45 25.45 0 0 0 19.58 9.2 25.53 25.53 0 0 0 25.5-25.52 25.53 25.53 0 0 0-25.5-25.5Zm52.44 123.57c-.6 0-1.2.04-1.76.13a11 11 0 0 0-8.73-17.62 11 11 0 0 0-8.75 17.62 10.99 10.99 0 1 0-1.77 21.81c3.38 0 6.42-1.54 8.43-3.95-.34 4.84-1.1 9.43-2.52 13.37h9.2c-1.43-3.94-2.18-8.54-2.53-13.37a10.98 10.98 0 1 0 8.42-18Zm-121.7-211.2a10.99 10.99 0 0 0-12.76-10.84 10.99 10.99 0 1 0-19.7-6.64c0 2.5.83 4.8 2.24 6.64a10.99 10.99 0 1 0-1.77 21.82c3.38 0 6.41-1.55 8.42-3.96-.35 4.83-1.1 9.43-2.52 13.37h9.2c-1.42-3.94-2.17-8.54-2.53-13.37a10.97 10.97 0 0 0 19.42-7.02Z" class="st0"/><path fill="#fff" d="M351.08 242.4h22.82v42.32h-22.82zM194.8 144h111.08v23.89H194.8z"/><path d="M223.07 130.64c7.2 0 13.5 3.78 17.11 9.44a20.16 20.16 0 0 1 3.23 10.9v38.22a20.37 20.37 0 0 1-20.34 20.34 20.37 20.37 0 0 1-20.34-20.34v-38.22c0-4.02 1.2-7.75 3.23-10.9a20.3 20.3 0 0 1 17.11-9.44Zm55.2-8.48a20.3 20.3 0 0 1 20.1 17.93c.1.8.25 1.59.25 2.41v46.7a20.37 20.37 0 0 1-20.35 20.35 20.37 20.37 0 0 1-20.34-20.34v-46.72c0-.82.15-1.61.24-2.41a20.29 20.29 0 0 1 20.1-17.93Zm88.99 109.85 1.06-178.08a34.9 34.9 0 0 0-34.86-34.87 34.89 34.89 0 0 0-34.85 34.86v60.33a34.63 34.63 0 0 0-20.34-6.61 34.88 34.88 0 0 0-30.77 18.52 34.72 34.72 0 0 0-44.77-3.42V75.16a34.9 34.9 0 0 0-34.86-34.86 34.89 34.89 0 0 0-34.85 34.86v156.85h13.8l.71-156.86a20.37 20.37 0 0 1 20.34-20.34 20.36 20.36 0 0 1 20.35 20.34V189.2a34.89 34.89 0 0 0 34.85 34.85 34.8 34.8 0 0 0 27.6-13.64 34.8 34.8 0 0 0 27.6 13.64 34.89 34.89 0 0 0 34.85-34.85V53.92a20.37 20.37 0 0 1 20.34-20.34 20.37 20.37 0 0 1 20.35 20.34V232h13.44Z"/><path d="M275.43 263.46a31.5 31.5 0 0 0 31.46 31.45h41.19v-14.5h-41.2c-9.34 0-16.95-7.6-16.95-16.96 0-9.35 7.61-16.95 16.96-16.95h41.19V232h-41.2a31.5 31.5 0 0 0-31.45 31.45Z"/><path d="M403.15 168.4a31.5 31.5 0 0 1 31.46-31.46h31.1v14.5h-31.1a16.96 16.96 0 0 0 0 33.91h31.1v14.5h-31.1a31.5 31.5 0 0 1-31.46-31.45Z" style="transform-box:fill-box" transform="rotate(180 -40.37 47.53)" transform-origin="50% 50%"/></svg>